<?xml version="1.0" encoding="UTF-8" standalone="no"?>
<svg width="48px" height="48px" viewBox="0 0 48 48" version="1.1" xmlns="http://www.w3.org/2000/svg" xmlns:xlink="http://www.w3.org/1999/xlink">
    <!-- Generator: Sketch 45.2 (43514) - http://www.bohemiancoding.com/sketch -->
    <title>Ring / 90%</title>
    <desc>Created with Sketch.</desc>
    <defs>
        <path d="M0.394807692,23.9567308 C0.394807692,10.94384 10.94384,0.394807692 23.9567308,0.394807692 C36.9696216,0.394807692 47.5186538,10.94384 47.5186538,23.9567308 C47.5186538,36.9696216 36.9696216,47.5186538 23.9567308,47.5186538 C10.94384,47.5186538 0.394807692,36.9696216 0.394807692,23.9567308 Z" id="path-1"></path>
        <path d="M0.280576923,23.8805769 C0.280576923,10.8466568 10.8466568,0.280576923 23.8805769,0.280576923 C36.914497,0.280576923 47.4805769,10.8466568 47.4805769,23.8805769 C47.4805769,36.914497 36.914497,47.4805769 23.8805769,47.4805769 C10.8466568,47.4805769 0.280576923,36.914497 0.280576923,23.8805769 Z" id="path-3"></path>
    </defs>
    <g id="Symbols" stroke="none" stroke-width="1" fill="none" fill-rule="evenodd">
        <g id="Detailsseite-/-StammdatenFahrer-Bergner" transform="translate(-25.000000, -28.000000)">
            <g id="Global-Elements-/-Actionsheet-Icons-/-User-Photo" transform="translate(25.000000, 28.000000)">
                <g>
                    <mask id="mask-2" fill="white">
                        <use xlink:href="#path-1"></use>
                    </mask>
                    <g id="Mask">
                        <use fill="#8E8E93" fill-rule="evenodd" xlink:href="#path-1"></use>
                        <path stroke="#8E8E93" stroke-width="1" d="M0.894807692,23.9567308 C0.894807692,36.6934792 11.2199824,47.0186538 23.9567308,47.0186538 C36.6934792,47.0186538 47.0186538,36.6934792 47.0186538,23.9567308 C47.0186538,11.2199824 36.6934792,0.894807692 23.9567308,0.894807692 C11.2199824,0.894807692 0.894807692,11.2199824 0.894807692,23.9567308 Z"></path>
                    </g>
                    <g id="Group-3" mask="url(#mask-2)">
                        <mask id="mask-4" fill="white">
                            <use xlink:href="#path-3"></use>
                        </mask>
                        <g id="Mask"></g>
                        <path d="M18.4936937,34.1028001 L18.4936937,37.188183 C18.4936937,38.383129 17.5347932,39.5073129 16.3588582,39.6979947 L11.5634163,40.4755914 C8.02710613,41.0490158 4.99915224,44.4154556 4.8,48 L44.8,48 C43.8048923,44.6168189 40.1442198,41.3485046 36.6224097,40.6997856 L31.4291194,39.7431791 C30.255727,39.5270397 29.3045045,38.3860529 29.3045045,37.188183 L29.3045045,34.1028001 C30.5445962,32.6738672 30.9140127,30.4805184 31.3459925,28.075128 C32.0270598,28.2345247 32.2282949,27.3297232 32.6007051,25.5777671 C32.9731152,23.825811 34.1384603,22.0304643 33.0847634,21.8065064 C32.9446679,21.7767298 32.8126144,21.7752881 32.6880657,21.7992907 L33.089476,15.9122621 C33.257068,13.4543802 32.1944452,10.7364218 30.6445946,10.0797755 C28.0764992,8.99171557 27.2836545,8.41476156 25.6866484,8.10388405 C24.0896422,7.79300654 22.5227618,8.22898275 20.8626056,8.76245585 C19.2024493,9.29592895 17.697444,10.6838035 16.4566976,11.4324605 C15.2159512,12.1811175 14.5698414,13.8754546 14.7087222,15.9122621 L15.1099006,21.7958899 C14.9908506,21.7755024 14.8650016,21.7782147 14.7318926,21.8065064 C13.6781956,22.0304643 14.8435407,23.825811 15.2159509,25.5777671 C15.588361,27.3297232 15.7895962,28.2345247 16.3736135,28.1103947 C16.8967741,30.4847682 17.2548036,32.6752517 18.4936937,34.1028001 Z" id="Rectangle-892" fill="#FFFFFF" mask="url(#mask-4)"></path>
                    </g>
                </g>
            </g>
        </g>
    </g>
</svg>