<?xml version="1.0" encoding="UTF-8" standalone="no"?>
<svg width="48px" height="48px" viewBox="0 0 48 48" version="1.1" xmlns="http://www.w3.org/2000/svg" xmlns:xlink="http://www.w3.org/1999/xlink">
    <!-- Generator: Sketch 45.2 (43514) - http://www.bohemiancoding.com/sketch -->
    <title>Ring / 90%</title>
    <desc>Created with Sketch.</desc>
    <defs>
        <path d="M0.394807692,23.9567308 C0.394807692,10.94384 10.94384,0.394807692 23.9567308,0.394807692 C36.9696216,0.394807692 47.5186538,10.94384 47.5186538,23.9567308 C47.5186538,36.9696216 36.9696216,47.5186538 23.9567308,47.5186538 C10.94384,47.5186538 0.394807692,36.9696216 0.394807692,23.9567308 Z" id="path-1"></path>
        <path d="M21.2530681,17.0666667 L9.22312249,17.0666667 C8.94901834,15.9300982 7.92549837,15.0857143 6.70476198,15.0857143 C5.48402558,15.0857143 4.46050562,15.9300982 4.18640147,17.0666667 L0,17.0666667 L0,12.1904762 L20.7238095,12.1904762 L20.7238095,4.65272531 C20.7238095,4.1028803 21.1813509,3.65714286 21.7254933,3.65714286 L27.0364114,3.65714286 C27.5896261,3.65714286 28.1623526,4.09204378 28.3130364,4.61943699 L30.4761905,12.1904762 L30.4761905,16.0681301 C30.4761905,16.6196066 30.0217242,17.0666667 29.4795199,17.0666667 L26.2897892,17.0666667 C26.015685,15.9300982 24.992165,15.0857143 23.7714286,15.0857143 C22.5506922,15.0857143 21.5271723,15.9300982 21.2530681,17.0666667 Z M0,10.9714286 L0,0.992991584 C0,0.443681553 0.445055483,0 0.994059245,0 L18.5107027,0 C19.0607306,0 19.5047619,0.444577475 19.5047619,0.992991584 L19.5047619,10.9714286 L0,10.9714286 Z" id="path-3"></path>
        <circle id="path-4" cx="6.7047619" cy="17.6761905" r="3.04761905"></circle>
        <circle id="path-5" cx="23.7714286" cy="17.6761905" r="3.04761905"></circle>
    </defs>
    <g id="Symbols" stroke="none" stroke-width="1" fill="none" fill-rule="evenodd">
        <g id="Detailsseite-/-Fahrzeug" transform="translate(-25.000000, -28.000000)">
            <g id="Global-Elements-/-Actionsheet-Icons-/-Car-Photo" transform="translate(25.000000, 28.000000)">
                <g id="Global-Elements-/-Actionsheet-Icons-/-User-Photo">
                    <mask id="mask-2" fill="white">
                        <use xlink:href="#path-1"></use>
                    </mask>
                    <g id="Mask">
                        <use fill="#8E8E93" fill-rule="evenodd" xlink:href="#path-1"></use>
                        <path stroke="#8E8E93" stroke-width="1" d="M0.894807692,23.9567308 C0.894807692,36.6934792 11.2199824,47.0186538 23.9567308,47.0186538 C36.6934792,47.0186538 47.0186538,36.6934792 47.0186538,23.9567308 C47.0186538,11.2199824 36.6934792,0.894807692 23.9567308,0.894807692 C11.2199824,0.894807692 0.894807692,11.2199824 0.894807692,23.9567308 Z"></path>
                    </g>
                    <g id="Group-2" mask="url(#mask-2)">
                        <g transform="translate(9.142857, 13.714286)">
                            <g id="Combined-Shape">
                                <use fill="#FFFFFF" fill-rule="evenodd" xlink:href="#path-3"></use>
                                <path stroke="#FFFFFF" stroke-width="1" d="M20.8860746,16.5666667 C21.3367973,15.3931084 22.4727865,14.5857143 23.7714286,14.5857143 C25.0700708,14.5857143 26.20606,15.3931084 26.6567827,16.5666667 L29.4795199,16.5666667 C29.7488555,16.5666667 29.9761905,16.3401997 29.9761905,16.0681301 L29.9761905,12.2605037 L27.8322744,4.75679755 C27.7424752,4.44250013 27.3647714,4.15714286 27.0364114,4.15714286 L21.7254933,4.15714286 C21.4529875,4.15714286 21.2238095,4.38350878 21.2238095,4.65272531 L21.2238095,12.6904762 L0.5,12.6904762 L0.5,16.5666667 L3.81940796,16.5666667 C4.27013063,15.3931084 5.40611981,14.5857143 6.70476198,14.5857143 C8.00340414,14.5857143 9.13939333,15.3931084 9.59011599,16.5666667 L20.8860746,16.5666667 Z M0.5,10.4714286 L19.0047619,10.4714286 L19.0047619,0.992991584 C19.0047619,0.720406876 18.7842751,0.5 18.5107027,0.5 L0.994059245,0.5 C0.720698026,0.5 0.5,0.720323592 0.5,0.992991584 L0.5,10.4714286 Z"></path>
                            </g>
                            <g id="Oval-2">
                                <use fill="#FFFFFF" fill-rule="evenodd" xlink:href="#path-4"></use>
                                <circle stroke="#FFFFFF" stroke-width="1" cx="6.7047619" cy="17.6761905" r="2.54761905"></circle>
                            </g>
                            <g id="Oval-2">
                                <use fill="#FFFFFF" fill-rule="evenodd" xlink:href="#path-5"></use>
                                <circle stroke="#FFFFFF" stroke-width="1" cx="23.7714286" cy="17.6761905" r="2.54761905"></circle>
                            </g>
                        </g>
                    </g>
                </g>
            </g>
        </g>
    </g>
</svg>